<?xml version="1.0" encoding="utf-8"?>
<!-- Generator: Adobe Illustrator 16.0.0, SVG Export Plug-In . SVG Version: 6.00 Build 0)  -->
<!DOCTYPE svg PUBLIC "-//W3C//DTD SVG 1.1//EN" "http://www.w3.org/Graphics/SVG/1.1/DTD/svg11.dtd">
<svg version="1.1" id="レイヤー_1" xmlns="http://www.w3.org/2000/svg" xmlns:xlink="http://www.w3.org/1999/xlink" x="0px"
	 y="0px" width="316px" height="64px" viewBox="0 0 316 64" enable-background="new 0 0 316 64" xml:space="preserve">
<path fill="#FFFFFF" d="M0.88,28.221C0.88,14.65,11.23,1.09,26.81,1.02h2.21C40.47,0.95,46.75,8.24,47.92,10.98
	c1.59,2.879-5.73,7.43-7.31,4.539C39.44,14.29,36.88,10.4,29.09,10.4h-2.21c-10.76,0-17.03,9.3-17.03,17.82v7.5
	c0,8.579,6.27,17.889,17.03,17.889h2.21c7.79,0,10.35-3.899,11.52-5.129c1.58-2.951,8.9,1.66,7.31,4.549
	c-1.17,2.74-7.45,9.951-18.9,9.951h-2.21C11.23,62.91,0.88,49.35,0.88,35.721V28.221z"/>
<path fill-rule="evenodd" clip-rule="evenodd" fill="#FFFFFF" d="M218.66,35.08h14.21l-7.11-20.84L218.66,35.08z M220.38,2.12
	c0.351-0.8,2.55-1.08,5.45-1.08c2.83,0,4.97,0.28,5.38,1.08l20.28,59.79c0,1.449-8.83,1.369-9.521,0l-6.21-18.25h-20l-6.21,18.25
	c-0.69,1.369-9.521,1.449-9.521,0L220.38,2.12z"/>
<path fill="#FFFFFF" d="M137.57,1.82c0-1.01,7.93-1.09,8.9-0.221c0.14,0.141,0.14,0.141,0.21,0.291L165.779,50l0.141,0.221
	c0.07,0.139,0.141,0.139,0.21,0L166.199,50L185.37,1.891c0.069-0.15,0.069-0.15,0.21-0.291c0.96-0.869,8.9-0.789,8.9,0.221v60.369
	c0,1.08-9.041,1.08-9.041,0v-36.5L171.23,61.471c-0.141,0.289-0.551,1.51-1.451,1.51h-7.51c-0.899,0-1.32-1.221-1.449-1.51
	l-14.21-35.781v36.5c0,1.08-9.04,1.08-9.04,0V1.82z"/>
<path fill="#FFFFFF" d="M257.88,1.82c0-1.09,9.04-1.09,9.04,0v60.369c0,1.08-9.04,1.08-9.04,0V1.82z"/>
<path fill="#FFFFFF" d="M280.24,62.98c-2.211-0.07-4.211-0.36-4.211-1.08V2.029c0-1.369,9.041-1.369,9.041,0V54.25h28.83
	c1.31,0,1.31,8.73,0,8.73H280.24z"/>
<path fill="#FFFFFF" d="M56.27,31.8c-2.74,14.57-0.99,25.66,9.33,29.229l1.91,0.66C77.75,65.23,90.52,54.65,94.82,41.04
	c0,0,7.77-33.58-8.6-38.45L84.3,1.92c-4.39-1.52-8.51,7-12.76,9.25c-5.72,3.04-11.07,1.189-13.52,8.939L56.27,31.8z"/>
<path fill="#FFFFFF" d="M123.41,33.7c0,3.42-1.78,4.69-9.59,4.69c-8.57,0-9.6-2.4-9.6-4.69s1.2-4.15,9.6-4.15
	C122.15,29.55,123.41,31.41,123.41,33.7z"/>
</svg>
